<?xml version="1.0" standalone="no"?>
<!DOCTYPE svg PUBLIC "-//W3C//DTD SVG 20010904//EN"
 "http://www.w3.org/TR/2001/REC-SVG-20010904/DTD/svg10.dtd">
<svg version="1.0" xmlns="http://www.w3.org/2000/svg"
 width="128.000000pt" height="128.000000pt" viewBox="0 0 128.000000 128.000000"
 preserveAspectRatio="xMidYMid meet">
<metadata>
Created by potrace 1.14, written by Peter Selinger 2001-2017
</metadata>
<g transform="translate(0.000000,128.000000) scale(0.100000,-0.100000)"
fill="#000000" stroke="none">
<path d="M551 1106 c-18 -22 -21 -52 -6 -72 19 -27 159 -30 186 -3 10 10 16
27 14 40 -8 42 -24 49 -105 49 -54 0 -81 -4 -89 -14z"/>
<path d="M550 952 c-54 -9 -152 -63 -203 -111 -188 -178 -174 -476 31 -643
130 -106 350 -118 487 -28 52 34 121 108 149 160 24 44 55 157 56 203 0 26
-36 57 -61 52 -36 -7 -46 -23 -52 -79 -14 -140 -129 -267 -254 -282 l-38 -4
30 12 c85 36 138 83 175 154 27 55 34 86 33 162 -1 128 -84 238 -216 288 -54
21 -57 23 -22 18 111 -16 194 -67 246 -151 23 -37 66 -45 93 -18 48 48 -77
193 -211 246 -56 22 -180 33 -243 21z"/>
</g>
</svg>
